<svg xmlns="http://www.w3.org/2000/svg" width="96" height="96" viewBox="0 0 96 96">
  <path fill="#c9cdd2" d="M8 88 L4 62 L14 44 L18 28 L26 48 L34 16 L42 44 L48 4 L54 44 L62 16 L70 48 L78 28 L82 44 L92 62 L88 88 Z"/>
  <path fill="#232629" d="M48 18 L52 40 L48 52 L44 40 Z"/>
  <path fill="#232629" d="M33 28 L37 28 L37 40 L33 40 Z"/>
  <path fill="#232629" d="M59 28 L63 28 L63 40 L59 40 Z"/>
  <path fill="#232629" d="M16 40 L22 38 L24 52 L18 54 Z"/>
  <path fill="#232629" d="M74 38 L80 40 L78 54 L72 52 Z"/>
</svg>
