<svg xmlns="http://www.w3.org/2000/svg" width="96" height="96" viewBox="0 0 96 96">
  <path fill="#c9cdd2" d="M20 16L76 16L80 20L80 68L76 72L20 72L16 68L16 20Z"/>
  <path fill="#c9cdd2" d="M14 72L82 72L82 76L78 80L18 80L14 76Z"/>
  <path fill="#c9cdd2" d="M8 80L88 80L88 84L84 88L12 88L8 84Z"/>
  <path fill="#232629" d="M34 28L40 28L44 32L44 50L40 54L34 54L30 50L30 32Z"/>
  <path fill="#232629" d="M56 28L62 28L66 32L66 50L62 54L56 54L52 50L52 32Z"/>
  <path fill="#232629" d="M16 60L80 60L80 68L16 68Z"/>
  <path fill="#232629" d="M16 34L22 34L22 48L16 48Z"/>
  <path fill="#232629" d="M74 34L80 34L80 48L74 48Z"/>
</svg>
