<svg xmlns="http://www.w3.org/2000/svg" width="96" height="96" viewBox="0 0 96 96">
  <rect x="10" y="24" width="76" height="48" fill="#2B2F35"/>
  <path fill-rule="evenodd" fill="#C9CDD2" d="M6 20H90V76H6Z M10 24H86V72H10Z"/>
  <rect x="46" y="26" width="4" height="44" fill="#C9CDD2"/>
  <rect x="16" y="30" width="4" height="36" fill="#C9CDD2"/>
  <rect x="76" y="30" width="4" height="36" fill="#C9CDD2"/>
  <rect x="6" y="20" width="14" height="10" fill="#2B2F35"/>
  <rect x="76" y="20" width="14" height="10" fill="#2B2F35"/>
  <rect x="6" y="66" width="14" height="10" fill="#2B2F35"/>
  <rect x="76" y="66" width="14" height="10" fill="#2B2F35"/>
  <rect x="10" y="23" width="4" height="4" fill="#C9CDD2"/>
  <rect x="82" y="23" width="4" height="4" fill="#C9CDD2"/>
  <rect x="10" y="69" width="4" height="4" fill="#C9CDD2"/>
  <rect x="82" y="69" width="4" height="4" fill="#C9CDD2"/>
</svg>
