<svg xmlns="http://www.w3.org/2000/svg" width="96" height="96" viewBox="0 0 96 96">
  <path fill="#2B2F35" d="M32 34 H64 L78 86 H18 Z"/>
  <path fill="#2B2F35" d="M6 44 L18 50 L18 66 L6 60 Z"/>
  <path fill="#2B2F35" d="M90 44 L78 50 L78 66 L90 60 Z"/>
  <rect fill="#2B2F35" x="30" y="8" width="36" height="7"/>
  <rect fill="#2B2F35" x="26" y="20" width="44" height="7"/>
  <rect fill="#2B2F35" x="14" y="86" width="68" height="5"/>
  <rect fill="#C9CDD2" x="44" y="22" width="8" height="3"/>
  <rect fill="#C9CDD2" x="36" y="38" width="24" height="4"/>
  <rect fill="#C9CDD2" x="34" y="50" width="28" height="3"/>
  <rect fill="#C9CDD2" x="32" y="60" width="32" height="3"/>
  <rect fill="#C9CDD2" x="30" y="70" width="36" height="3"/>
  <circle fill="#C9CDD2" cx="11" cy="52" r="2"/>
  <circle fill="#C9CDD2" cx="85" cy="52" r="2"/>
</svg>
